<svg width="32" height="32" viewBox="0 0 32 32" fill="none" xmlns="http://www.w3.org/2000/svg">
<path opacity="0.2" d="M31.9132 16.0003C31.9132 24.7904 24.7877 31.9161 15.9977 31.9161C7.20769 31.9161 0.0820312 24.7904 0.0820312 16.0003C0.0820312 7.21037 7.20769 0.0847168 15.9977 0.0847168C24.7876 0.0847168 31.9132 7.21037 31.9132 16.0003Z" fill="#3CC8C8"/>
<path fill-rule="evenodd" clip-rule="evenodd" d="M17.0688 8.12141C17.2826 7.71535 16.7914 7.2237 16.3891 7.43563C16.0617 7.56738 15.9787 8.04598 16.2334 8.28813C16.4739 8.54043 16.9447 8.45242 17.0688 8.12141ZM12.5901 8.30053C12.615 8.03144 12.3056 7.80524 12.0612 7.90687C11.721 7.99843 11.6832 8.53969 12.0133 8.66883C12.2624 8.80766 12.6161 8.59265 12.5901 8.30053ZM20.9252 8.67703C20.5432 8.63041 20.4827 8.02379 20.8505 7.90165C21.1357 7.76113 21.3974 8.02463 21.4391 8.29773C21.3793 8.53093 21.186 8.74445 20.9252 8.67703ZM13.9748 10.3747C14.0377 9.89522 13.4546 9.5064 13.0459 9.76748C12.6632 9.96515 12.6106 10.5549 12.9579 10.812C13.317 11.1392 13.9536 10.8588 13.9748 10.3747ZM19.2842 10.0445C19.4665 9.5699 20.2053 9.55554 20.4128 10.0175C20.6179 10.3771 20.3656 10.8223 20.0001 10.9445C19.5161 11.0358 19.0563 10.5072 19.2842 10.0445ZM16.6156 10.1779C16.2318 10.2057 15.8639 10.5097 15.8679 10.9176C15.846 11.2509 16.0818 11.5232 16.3617 11.662C16.3899 11.6637 16.4185 11.666 16.4472 11.6683C16.6053 11.681 16.7696 11.6942 16.9119 11.6136C17.2796 11.4493 17.4604 10.9565 17.2568 10.5985C17.1476 10.339 16.8702 10.2295 16.6156 10.1779ZM9.43171 11.512C9.80501 11.2802 10.3086 11.7032 10.1673 12.1128C10.0895 12.4672 9.61799 12.6113 9.34845 12.3851C9.06073 12.1732 9.10633 11.6636 9.43171 11.512ZM24.0541 11.9517C24.0919 11.5478 23.5692 11.2629 23.2525 11.5113C22.9275 11.7128 22.9629 12.2509 23.3091 12.4081C23.6235 12.5978 24.0754 12.32 24.0541 11.9517ZM17.6779 12.2446C18.2005 12.0549 18.8213 12.2819 19.1192 12.7526C19.5121 13.3279 19.303 14.2042 18.6932 14.5344C18.0614 14.9249 17.1388 14.5939 16.9054 13.8811C16.6405 13.2431 17.0264 12.4446 17.6779 12.2446ZM16.25 12.8614C15.9702 12.2629 15.1906 12.0312 14.6114 12.3073C13.994 12.5858 13.71 13.4074 14.0299 14.0122C14.3151 14.6377 15.1466 14.894 15.736 14.5559C16.3246 14.2551 16.5792 13.4439 16.25 12.8614ZM11.541 13.3677C11.585 12.9907 11.937 12.7454 12.2922 12.72C12.675 12.7666 12.9807 13.0669 13.0223 13.4581C12.9972 13.8454 12.7009 14.224 12.2946 14.2217C11.8475 14.2605 11.4556 13.8113 11.541 13.3677ZM21.6859 13.4575C21.7063 12.925 21.069 12.5321 20.61 12.802C20.1173 13.0367 20.0803 13.8129 20.555 14.0885C21.012 14.4195 21.7174 14.0218 21.6859 13.4575ZM13.3635 14.7908C13.9002 14.6416 14.514 14.8972 14.7773 15.3955C15.0656 15.8972 14.9478 16.5941 14.4999 16.962C13.9254 17.5017 12.866 17.285 12.5603 16.5485C12.209 15.8733 12.6357 14.9685 13.3635 14.7908ZM20.5951 15.3206C20.3145 14.8404 19.7015 14.6372 19.1797 14.788C18.4465 14.9908 18.0583 15.9305 18.4441 16.5954C18.7624 17.2382 19.6583 17.454 20.2367 17.0429C20.7889 16.6889 20.966 15.8698 20.5951 15.3206ZM9.91107 15.4146C10.3747 15.2374 10.8887 15.7542 10.7009 16.2186C10.5861 16.6416 9.9959 16.798 9.69101 16.4861C9.33424 16.1932 9.46633 15.5416 9.91107 15.4146ZM23.1405 15.3352C22.7465 15.3567 22.4654 15.7003 22.4788 16.0884C22.5558 16.2694 22.6493 16.4583 22.8316 16.5519C23.2206 16.7686 23.7707 16.4551 23.7417 15.994C23.7668 15.6448 23.458 15.386 23.1405 15.3352ZM7.63125 15.6424C7.9102 15.5194 8.25525 15.7636 8.19156 16.0765C8.1766 16.4308 7.65875 16.567 7.46851 16.271C7.30041 16.0654 7.40103 15.7484 7.63125 15.6424ZM25.8093 15.8273C25.7315 15.5955 25.4163 15.494 25.2199 15.6353C24.893 15.8114 25.0211 16.421 25.4171 16.3845C25.6992 16.4273 25.9413 16.0805 25.8093 15.8273ZM14.8786 17.3361C15.6127 17.1432 16.4017 17.7615 16.4063 18.525C16.4542 19.2964 15.6771 19.9805 14.9257 19.8024C14.3449 19.7079 13.8892 19.1428 13.908 18.55C13.9064 17.983 14.33 17.456 14.8786 17.3361ZM19.3314 18.5346C19.3432 17.7535 18.5306 17.1241 17.7856 17.3345C17.3439 17.4453 16.9699 17.8131 16.8723 18.2653C16.679 18.9439 17.1898 19.7122 17.8821 19.8026C18.6178 19.9528 19.3707 19.2918 19.3314 18.5346ZM12.1807 17.8044C12.6963 17.7155 13.1796 18.2965 12.9705 18.791C12.818 19.3179 12.0589 19.4608 11.7233 19.0304C11.3296 18.6171 11.6235 17.8615 12.1807 17.8044ZM21.6945 18.5388C21.7298 18.0348 21.1655 17.6331 20.7058 17.8276C20.1502 18.006 20.0576 18.8616 20.5667 19.1523C21.0163 19.4761 21.7129 19.0935 21.6945 18.5388ZM23.0887 20.2418C22.9087 19.9029 23.2356 19.4536 23.6082 19.5164C23.7834 19.5134 23.9088 19.6449 24.0222 19.7639L24.042 19.7846L24.0463 19.819C24.0704 20.0123 24.098 20.2338 23.9423 20.3799C23.7181 20.6664 23.2104 20.5846 23.0887 20.2418ZM10.2011 20.137C10.2794 19.7258 9.77833 19.3766 9.43014 19.6107C9.09848 19.7815 9.08667 20.3148 9.40725 20.5021C9.70596 20.7085 10.1595 20.5006 10.2011 20.137ZM16.3089 20.372C16.7648 20.1688 17.3455 20.5696 17.3023 21.0768C17.336 21.6371 16.6178 22.0252 16.1721 21.6887C15.6771 21.3997 15.7596 20.5497 16.3089 20.372ZM13.9968 21.7116C14.0322 21.2728 13.5112 20.9164 13.1229 21.1227C12.8494 21.2259 12.7379 21.5307 12.7331 21.8044C12.8266 22.0555 13.0168 22.3196 13.3084 22.3259C13.6604 22.3791 14.0086 22.072 13.9968 21.7116ZM19.5765 21.1291C19.9758 20.8798 20.5432 21.2378 20.5054 21.7072C20.5157 22.1977 19.8744 22.5119 19.5027 22.1897C19.1428 21.9371 19.1867 21.3299 19.5765 21.1291ZM21.0187 23.2713C20.7303 23.3332 20.5212 23.6602 20.6988 23.9316C20.8811 24.2467 21.4132 24.134 21.447 23.7666C21.4957 23.495 21.2506 23.3189 21.0187 23.2713ZM11.7901 23.6959C11.8608 23.4808 12.0321 23.267 12.2828 23.3229C12.6483 23.3491 12.7567 23.9055 12.4369 24.077C12.1493 24.2728 11.8156 24.0046 11.7901 23.6959ZM16.8346 23.6387C16.5658 23.4697 16.158 23.6245 16.088 23.9427C15.9602 24.2642 16.2672 24.6528 16.6076 24.6125C16.7907 24.6173 16.9321 24.4855 17.0421 24.3538C17.0636 24.2649 17.0853 24.176 17.1097 24.0871L17.1082 24.0815C17.0629 23.9121 17.0103 23.7149 16.8346 23.6387Z" fill="#3CC8C8"/>
</svg>
