<svg width="32" height="32" viewBox="0 0 32 32" fill="none" xmlns="http://www.w3.org/2000/svg">
<path opacity="0.2" d="M31.52 19.8708C29.383 28.4423 20.701 33.6583 12.1285 31.5213C3.55999 29.3843 -1.65651 20.7023 0.48099 12.1313C2.61699 3.5588 11.2985 -1.6582 19.8685 0.478798C28.4405 2.6158 33.6565 11.2988 31.5195 19.8708H31.52Z" fill="#F7931A"/>
<path fill-rule="evenodd" clip-rule="evenodd" d="M20.8192 14.1411C21.0349 12.6969 19.9352 11.9205 18.4316 11.4025L18.9193 9.44604L17.7281 9.14925L17.2532 11.0542C16.9405 10.9761 16.6189 10.9025 16.2994 10.8296L16.7777 8.91215L15.5875 8.61536L15.0994 10.5711C14.8402 10.5121 14.5858 10.4538 14.3389 10.3924L14.3402 10.3863L12.6979 9.9762L12.3811 11.2482C12.3811 11.2482 13.2647 11.4507 13.246 11.4632C13.7283 11.5836 13.8159 11.9028 13.8009 12.1559L13.2453 14.3847C13.2786 14.3932 13.3216 14.4054 13.3691 14.4244L13.2436 14.3932L12.4645 17.5154C12.4055 17.662 12.2559 17.8818 11.9187 17.7983C11.9306 17.8156 11.0531 17.5823 11.0531 17.5823L10.4619 18.9458L12.012 19.3322C12.187 19.376 12.3599 19.4211 12.5309 19.4657L12.5309 19.4657L12.5313 19.4658C12.6418 19.4947 12.7516 19.5233 12.8607 19.5513L12.3678 21.5305L13.5574 21.8273L14.0458 19.8694C14.3704 19.9576 14.6859 20.039 14.9945 20.1157L14.5081 22.0643L15.699 22.3611L16.1919 20.386C18.2226 20.7703 19.75 20.6153 20.3921 18.7789C20.9101 17.3 20.3667 16.447 19.2982 15.8904C20.0763 15.7103 20.6625 15.1984 20.8188 14.1411H20.8192ZM18.0978 17.9567C17.7597 19.3141 15.6347 18.7524 14.6633 18.4957L14.6631 18.4957C14.5762 18.4727 14.4985 18.4522 14.4322 18.4357L15.0861 15.814C15.1673 15.8343 15.2664 15.8565 15.3786 15.8817L15.3787 15.8817C16.3837 16.1073 18.4432 16.5694 18.0982 17.9567H18.0978ZM15.5807 14.6652C16.3912 14.8814 18.1581 15.3528 18.4658 14.1198C18.7805 12.8583 17.0625 12.4781 16.2234 12.2925C16.1291 12.2716 16.0458 12.2532 15.9779 12.2362L15.385 14.614C15.4411 14.628 15.5069 14.6455 15.5807 14.6652Z" fill="#F7931A"/>
</svg>
