<svg width="32" height="32" viewBox="0 0 32 32" fill="none" xmlns="http://www.w3.org/2000/svg">
<path opacity="0.1" d="M16 32C24.8366 32 32 24.8366 32 16C32 7.16344 24.8366 0 16 0C7.16344 0 0 7.16344 0 16C0 24.8366 7.16344 32 16 32Z" fill="#3AB83A"/>
<mask id="mask0_84_1397" style="mask-type:alpha" maskUnits="userSpaceOnUse" x="0" y="0" width="32" height="32">
<path d="M16 32C24.8366 32 32 24.8366 32 16C32 7.16344 24.8366 0 16 0C7.16344 0 0 7.16344 0 16C0 24.8366 7.16344 32 16 32Z" fill="white"/>
</mask>
<g mask="url(#mask0_84_1397)">
<path fill-rule="evenodd" clip-rule="evenodd" d="M12.3077 15.1705L16.633 12.3589L20.9231 15.188L16.6142 7.38464L12.3077 15.1705ZM12.4727 15.9826L16.6378 13.2379L20.7486 15.9622L16.6401 18.7098L12.4727 15.9826ZM12.3077 16.7684C13.8257 17.7639 15.4097 18.8058 16.633 19.6121L20.9231 16.7684C19.3697 19.6179 18.0756 21.99 16.633 24.6154L15.7485 23.012L15.7481 23.0113C14.5598 20.8574 13.3344 18.6363 12.3077 16.7684Z" fill="#3AB83A"/>
<path fill-rule="evenodd" clip-rule="evenodd" d="M16.6154 7.38464L16.6315 12.3589L20.923 15.188L16.6154 7.38464ZM16.6356 13.2379L20.7736 15.9622L16.6376 18.7098L16.6356 13.2379ZM16.6315 19.6121L20.923 16.7684C19.592 19.6179 16.6315 24.6154 16.6315 24.6154V19.6121Z" fill="#0B8311"/>
</g>
</svg>
