<svg width="32" height="32" viewBox="0 0 32 32" fill="none" xmlns="http://www.w3.org/2000/svg">
<path opacity="0.2" fill-rule="evenodd" clip-rule="evenodd" d="M16 32C24.8366 32 32 24.8366 32 16C32 7.16344 24.8366 0 16 0C7.16344 0 0 7.16344 0 16C0 24.8366 7.16344 32 16 32Z" fill="#59A5EB"/>
<path d="M19.0743 18.4279V20.6544H15.0656V23.3846H12.0768V20.6544H11.0771V18.4279H12.0768V17.219H11.0771V14.8616H12.0768V8.61536H16.3379C17.9266 8.61536 19.0743 8.74968 19.7812 9.01834C20.4947 9.28027 21.0703 9.75042 21.5078 10.4288C21.9387 11.1004 22.1541 11.8761 22.1541 12.756C22.1541 13.4746 22.0632 14.0858 21.8814 14.5895C21.7064 15.0865 21.4641 15.4996 21.1544 15.8287C20.8448 16.1578 20.4779 16.4164 20.0538 16.6044C19.6297 16.7925 19.1686 16.9335 18.6704 17.0276C18.1723 17.1149 17.6506 17.1686 17.1053 17.1888C16.5668 17.2089 16.0215 17.219 15.4695 17.219H15.0656V18.4279H19.0743ZM15.0656 14.8616H15.2474C16.6812 14.8616 17.5766 14.8011 17.9333 14.6802C18.2968 14.5593 18.5762 14.3511 18.7714 14.0556C18.9734 13.7601 19.0743 13.3907 19.0743 12.9474C19.0743 12.4437 18.9464 12.0407 18.6906 11.7385C18.4348 11.4295 18.0545 11.2381 17.5496 11.1642C17.4285 11.1508 17.1861 11.1407 16.8226 11.134C16.4658 11.1206 15.9812 11.1138 15.3686 11.1138H15.0656V14.8616Z" fill="#6789BD"/>
</svg>
