<svg width="32" height="32" viewBox="0 0 32 32" fill="none" xmlns="http://www.w3.org/2000/svg">
<path opacity="0.2" d="M16 32C24.8366 32 32 24.8366 32 16C32 7.16344 24.8366 0 16 0C7.16344 0 0 7.16344 0 16C0 24.8366 7.16344 32 16 32Z" fill="#505050"/>
<path fill-rule="evenodd" clip-rule="evenodd" d="M22.212 12.5039L21.8935 12.2781L21.8933 12.278L21.893 12.2777L21.8923 12.2773C21.3968 11.9259 20.8802 11.5597 20.3728 11.1957C20.3591 11.1853 20.3455 11.175 20.3284 11.1646C20.2602 11.1127 20.1817 11.0573 20.0861 11.0261L20.0793 11.0227C18.5721 10.6531 17.0422 10.275 15.5517 9.90655L15.1248 9.80103C14.3878 9.61934 13.6517 9.43766 12.9155 9.25598L12.9152 9.2559L12.9152 9.2559L12.9139 9.25559C12.1783 9.07402 11.4426 8.89245 10.706 8.71088L10.706 8.71088C10.6685 8.7005 10.6309 8.69012 10.59 8.67973C10.4569 8.64167 10.3034 8.60014 10.1396 8.6209C10.0918 8.62782 10.0509 8.64513 10.0133 8.66935L9.97238 8.70396C9.90755 8.76625 9.87343 8.84585 9.85637 8.89084L9.84613 8.91853V9.07772L9.85295 9.10195C10.5534 11.0926 11.2673 13.1047 11.97 15.0854L11.9701 15.0855L11.9702 15.086C12.2021 15.7394 12.4327 16.3894 12.6612 17.0341L13.2989 18.8306L13.2995 18.8322L13.2997 18.833C13.8073 20.2626 14.3218 21.7119 14.8279 23.1423C14.8723 23.2808 14.9986 23.3707 15.1555 23.3846H15.1896C15.3364 23.3846 15.466 23.3119 15.5309 23.1942L18.2333 19.197C18.5623 18.7113 18.8912 18.2247 19.2201 17.7381L19.2212 17.7365C19.5505 17.2494 19.8797 16.7624 20.209 16.2761C20.3438 16.0772 20.4785 15.8773 20.6133 15.6775L20.6135 15.6771C20.7482 15.4774 20.883 15.2776 21.0177 15.0787L21.0731 14.9966L21.0732 14.9964L21.0732 14.9964L21.0735 14.9959C21.4996 14.3643 21.9375 13.7151 22.3723 13.0818L22.3962 13.0472V13.0057C22.4064 12.8846 22.4099 12.6354 22.212 12.5039ZM19.0454 13.9609C18.8086 14.0861 18.57 14.2128 18.3299 14.3402C17.9265 14.5543 17.5193 14.7705 17.1107 14.9853L18.2504 13.7463C18.6635 13.2941 19.0922 12.8288 19.5161 12.3687L19.704 12.1647L19.7142 12.1544C19.7552 12.099 19.8063 12.0471 19.8609 11.9917L19.8893 11.9634C19.9185 11.9344 19.9487 11.9044 19.977 11.8706C20.2295 12.0471 20.4854 12.227 20.7311 12.4035C20.9085 12.5316 21.0893 12.6596 21.2736 12.7877C20.5229 13.1753 19.7722 13.5733 19.0454 13.9609ZM15.9198 15.4248C16.4214 14.8815 16.9264 14.3312 17.4144 13.7948L17.8443 13.326C18.3496 12.7751 18.864 12.2141 19.3764 11.6595C18.3868 11.4155 17.3964 11.1715 16.406 10.9275C15.4156 10.6835 14.4253 10.4395 13.4358 10.1956C13.0843 10.1056 12.726 10.0191 12.3814 9.936C11.989 9.84256 11.5898 9.74565 11.1939 9.64183C11.2142 9.66675 11.2345 9.69133 11.2547 9.71579C11.299 9.76944 11.3428 9.82249 11.385 9.87716C11.4157 9.91489 11.4463 9.95333 11.477 9.99191L11.4771 9.99192L11.4771 9.99193L11.4771 9.99195C11.5422 10.0737 11.6079 10.156 11.6751 10.2336L11.6785 10.2371L12.3354 11.0383L12.9922 11.8394C13.9544 13.0126 14.9474 14.2274 15.9198 15.4248ZM15.6981 20.5398C15.7084 20.4396 15.719 20.3386 15.7297 20.2372L15.7297 20.2372C15.7577 19.9708 15.7859 19.7015 15.8107 19.4358L15.8414 19.1402C15.8618 18.9425 15.8823 18.7449 15.9028 18.5533L15.9244 18.346C15.9656 17.9506 16.0079 17.5457 16.0427 17.1483L16.0529 17.0652C16.087 16.7676 16.1212 16.4596 16.1416 16.1516C16.1792 16.1308 16.2201 16.11 16.2645 16.0927C16.2773 16.0867 16.2901 16.0808 16.3029 16.075C16.3413 16.0575 16.3796 16.0399 16.418 16.0166L16.418 16.0166C17.2063 15.5978 17.9945 15.1791 18.7861 14.7638C19.5743 14.3485 20.383 13.9194 21.1849 13.4937C20.4547 14.5665 19.721 15.6497 19.0113 16.7053L18.611 17.2975L18.6108 17.2978C18.1277 18.0126 17.6369 18.7388 17.1482 19.4566C17.0093 19.664 16.8671 19.8737 16.726 20.0817C16.6175 20.2417 16.5097 20.4007 16.4044 20.5571C16.1314 20.9586 15.8516 21.3704 15.5786 21.7822C15.6128 21.367 15.6537 20.9482 15.6981 20.5398ZM10.8963 10.3332C10.9115 10.3751 10.9267 10.417 10.9414 10.4586C11.7125 12.6364 12.4836 14.8111 13.2547 16.9858C13.6404 18.0734 14.026 19.1611 14.4117 20.2491L14.7768 21.277C14.8245 21.4189 14.8757 21.5642 14.9269 21.7026C14.9335 21.7213 14.9405 21.7405 14.9477 21.7599C14.9592 21.7911 14.971 21.823 14.9815 21.8549C14.9954 21.723 15.0087 21.5911 15.0218 21.4598C15.0377 21.3018 15.0534 21.1447 15.0702 20.9897C15.0765 20.9299 15.0828 20.8699 15.0891 20.8097C15.1549 20.1812 15.2223 19.5374 15.2784 18.8994L15.2818 18.8752C15.2818 18.8752 15.3364 18.3976 15.3602 18.1865C15.3641 18.1519 15.3682 18.1171 15.3722 18.0822C15.3861 17.9635 15.4001 17.8431 15.408 17.7228V17.7193C15.4353 17.4736 15.4592 17.2313 15.4831 16.9891C15.4982 16.8498 15.5127 16.7083 15.5274 16.5656C15.5492 16.3539 15.5712 16.1396 15.5957 15.9266C15.5024 15.8217 15.4147 15.7131 15.3284 15.6063C15.298 15.5685 15.2677 15.531 15.2374 15.494C15.1487 15.3833 15.0566 15.2691 14.9644 15.1618C14.6527 14.7787 14.3411 14.3988 14.0294 14.0188C13.8736 13.8289 13.7178 13.639 13.562 13.4487C12.6578 12.3482 11.7297 11.213 10.8084 10.0848C10.8357 10.1656 10.866 10.2494 10.8963 10.3332Z" fill="white"/>
</svg>
