<svg width="32" height="32" viewBox="0 0 32 32" fill="none" xmlns="http://www.w3.org/2000/svg">
<path opacity="0.2" fill-rule="evenodd" clip-rule="evenodd" d="M16 32C24.8366 32 32 24.8366 32 16C32 7.16344 24.8366 0 16 0C7.16344 0 0 7.16344 0 16C0 24.8366 7.16344 32 16 32Z" fill="#83BD67"/>
<path fill-rule="evenodd" clip-rule="evenodd" d="M14.5985 8.61536C15.4772 8.61536 16.3527 8.61536 17.2314 8.61536C17.1797 9.20979 17.1248 9.80745 17.0764 10.4019C18.1005 10.4762 19.0987 10.8057 19.9968 11.2935C19.6092 12.2692 19.2183 13.2448 18.8274 14.2204C18.0714 13.5776 17.0764 13.2222 16.0846 13.2351C15.8358 13.2416 15.5774 13.29 15.3706 13.4322C15.2349 13.5259 15.1348 13.6712 15.1057 13.8328C15.0831 13.962 15.0896 14.1074 15.1606 14.2237C15.2414 14.3529 15.3835 14.4304 15.5257 14.4789C15.8164 14.5823 16.1298 14.5887 16.4335 14.621C17.1474 14.7083 17.8646 14.831 18.5398 15.0862C19.0632 15.2865 19.5639 15.587 19.9225 16.0263C20.2617 16.4302 20.4588 16.9406 20.5331 17.464C20.6203 18.0681 20.5945 18.6948 20.4071 19.2828C20.2617 19.7545 20.013 20.1938 19.6899 20.5653C19.0212 21.3407 18.0391 21.8059 17.0311 21.9254C17.0634 22.5618 17.1022 23.195 17.1378 23.8315C16.3043 23.8315 15.474 23.8315 14.6437 23.8315C14.676 23.2015 14.718 22.5715 14.7471 21.9416C14.0784 21.919 13.4161 21.7704 12.7926 21.5345C12.1885 21.3051 11.6134 21.0015 11.0771 20.6461C11.4713 19.6317 11.8654 18.6173 12.2628 17.5997C12.7118 17.9776 13.19 18.3298 13.7133 18.5979C14.2754 18.8854 14.8989 19.0696 15.5321 19.076C15.8326 19.0793 16.1427 19.0631 16.427 18.9597C16.6015 18.8951 16.7727 18.782 16.8502 18.6044C16.931 18.417 16.9245 18.1812 16.8018 18.0132C16.7145 17.9001 16.5918 17.8226 16.4626 17.7676C16.2881 17.6966 16.1072 17.6578 15.923 17.6287C15.2446 17.5189 14.563 17.4284 13.9072 17.2152C13.3806 17.044 12.8669 16.8049 12.4469 16.4366C12.182 16.2073 11.9623 15.9262 11.8073 15.6096C11.5747 15.1379 11.4874 14.6049 11.4939 14.0815C11.4939 13.4968 11.6134 12.9024 11.9042 12.3887C12.1562 11.93 12.5406 11.5552 12.9735 11.2677C13.4969 10.922 14.0816 10.6862 14.676 10.4956C14.6502 9.86883 14.6243 9.24209 14.5985 8.61536Z" fill="#83BD67"/>
</svg>
