<svg width="32" height="32" viewBox="0 0 32 32" fill="none" xmlns="http://www.w3.org/2000/svg">
<path opacity="0.2" d="M31.9132 16.0003C31.9132 24.7904 24.7877 31.9161 15.9977 31.9161C7.20769 31.9161 0.0820312 24.7904 0.0820312 16.0003C0.0820312 7.21037 7.20769 0.0847168 15.9977 0.0847168C24.7876 0.0847168 31.9132 7.21037 31.9132 16.0003Z" fill="#00A478"/>
<path d="M14.3653 15.7216V12.9372H10.5889V10.4966H21.1418V12.9716H17.3653V15.7216H14.3653Z" fill="#00A478"/>
<path fill-rule="evenodd" clip-rule="evenodd" d="M8.96582 16.0309C8.96582 15.1028 12.0011 14.3466 15.7776 14.3466C19.5541 14.3466 22.5893 15.1028 22.5893 16.0309C22.5893 16.9591 19.5541 17.7153 15.7776 17.7153C12.0011 17.7153 8.96582 16.9591 8.96582 16.0309ZM22.0246 16.0309C21.7776 15.6872 19.7305 14.6216 15.7776 14.6216C11.8246 14.6216 9.77758 15.6528 9.53053 16.0309C9.77758 16.3747 11.8246 16.8903 15.7776 16.8903C19.7658 16.8903 21.7776 16.3747 22.0246 16.0309Z" fill="#00A478"/>
<path d="M17.3661 16.5809V14.6559C16.872 14.6215 16.3425 14.5872 15.8131 14.5872C15.319 14.5872 14.8602 14.5872 14.4014 14.6215V16.5465C14.8249 16.5465 15.319 16.5809 15.8131 16.5809C16.3425 16.6153 16.872 16.6153 17.3661 16.5809Z" fill="#00A478"/>
<path d="M15.778 17.7152C15.2839 17.7152 14.825 17.7152 14.3662 17.6809V22.8027H17.3309V17.6465C16.8368 17.6809 16.3074 17.7152 15.778 17.7152Z" fill="#00A478"/>
</svg>
