<svg width="32" height="32" viewBox="0 0 32 32" fill="none" xmlns="http://www.w3.org/2000/svg">
<path opacity="0.2" d="M16 32C24.8366 32 32 24.8366 32 16C32 7.16344 24.8366 0 16 0C7.16344 0 0 7.16344 0 16C0 24.8366 7.16344 32 16 32Z" fill="#1276A7"/>
<path d="M17.9346 9.0127C16.9331 9.5828 16.3402 10.6123 16.3402 11.6979C16.3402 12.268 16.5764 12.8425 16.8722 13.3551C17.1084 13.8129 17.2243 14.612 16.3997 15.0123C15.8113 15.3534 15.0416 15.126 14.6895 14.5544C14.3374 14.0966 13.9244 13.6387 13.3924 13.2975C12.391 12.7274 11.2096 12.7274 10.2081 13.2975C9.20666 13.8676 8.61523 14.8997 8.61523 15.9856C8.61523 17.0715 9.20361 18.1006 10.2079 18.6722C11.2093 19.2423 12.3907 19.2423 13.3921 18.6722C13.9241 18.3857 14.3371 17.9308 14.6299 17.4153C14.8661 17.0151 15.5154 16.4996 16.34 16.9575C16.9284 17.2986 17.1052 18.0445 16.8125 18.6146C16.5168 19.1301 16.34 19.7017 16.34 20.2718C16.34 21.3589 16.9284 22.3868 17.9344 22.957C18.9358 23.5271 20.1171 23.5271 21.1186 22.957C22.1201 22.3869 22.7131 21.3574 22.7131 20.2718C22.7131 19.1862 22.1232 18.1568 21.1188 17.5851C20.5868 17.2986 19.9969 17.1849 19.3491 17.1849C18.8171 17.1849 18.1114 16.8437 18.1114 15.9856C18.1114 15.2988 18.6433 14.7862 19.3491 14.7862C19.9375 14.7862 20.5868 14.6725 21.1188 14.386C22.1202 13.8159 22.7131 12.7864 22.7131 11.7009C22.7131 10.6153 22.1232 9.58582 21.1188 9.01566C20.6463 8.72913 20.0579 8.61541 19.5261 8.61541C18.9972 8.61246 18.4042 8.72913 17.9348 9.0127" fill="#1276A7"/>
</svg>
